<?xml version="1.0" standalone="no"?><svg xmlns="http://www.w3.org/2000/svg" viewBox="0 0 1440 320"><path fill="#e0518e" fill-opacity="1" d="M0,0L26.7,5.3C53.3,11,107,21,160,53.3C213.3,85,267,139,320,176C373.3,213,427,235,480,218.7C533.3,203,587,149,640,128C693.3,107,747,117,800,154.7C853.3,192,907,256,960,272C1013.3,288,1067,256,1120,234.7C1173.3,213,1227,203,1280,181.3C1333.3,160,1387,128,1413,112L1440,96L1440,0L1413.3,0C1386.7,0,1333,0,1280,0C1226.7,0,1173,0,1120,0C1066.7,0,1013,0,960,0C906.7,0,853,0,800,0C746.7,0,693,0,640,0C586.7,0,533,0,480,0C426.7,0,373,0,320,0C266.7,0,213,0,160,0C106.7,0,53,0,27,0L0,0Z"></path></svg>