<?xml version="1.0" standalone="no"?><svg xmlns="http://www.w3.org/2000/svg" viewBox="0 0 1440 320"><path fill="#e0518e" fill-opacity="1" d="M0,0L24,21.3C48,43,96,85,144,133.3C192,181,240,235,288,266.7C336,299,384,309,432,272C480,235,528,149,576,144C624,139,672,213,720,234.7C768,256,816,224,864,224C912,224,960,256,1008,277.3C1056,299,1104,309,1152,314.7C1200,320,1248,320,1296,314.7C1344,309,1392,299,1416,293.3L1440,288L1440,0L1416,0C1392,0,1344,0,1296,0C1248,0,1200,0,1152,0C1104,0,1056,0,1008,0C960,0,912,0,864,0C816,0,768,0,720,0C672,0,624,0,576,0C528,0,480,0,432,0C384,0,336,0,288,0C240,0,192,0,144,0C96,0,48,0,24,0L0,0Z"></path></svg>