<?xml version="1.0" standalone="no"?><svg xmlns="http://www.w3.org/2000/svg" viewBox="0 0 1440 320"><path fill="#e0518e" fill-opacity="1" d="M0,224L13.3,218.7C26.7,213,53,203,80,186.7C106.7,171,133,149,160,165.3C186.7,181,213,235,240,218.7C266.7,203,293,117,320,80C346.7,43,373,53,400,69.3C426.7,85,453,107,480,101.3C506.7,96,533,64,560,85.3C586.7,107,613,181,640,197.3C666.7,213,693,171,720,154.7C746.7,139,773,149,800,181.3C826.7,213,853,267,880,293.3C906.7,320,933,320,960,277.3C986.7,235,1013,149,1040,144C1066.7,139,1093,213,1120,234.7C1146.7,256,1173,224,1200,181.3C1226.7,139,1253,85,1280,96C1306.7,107,1333,181,1360,181.3C1386.7,181,1413,107,1427,69.3L1440,32L1440,0L1426.7,0C1413.3,0,1387,0,1360,0C1333.3,0,1307,0,1280,0C1253.3,0,1227,0,1200,0C1173.3,0,1147,0,1120,0C1093.3,0,1067,0,1040,0C1013.3,0,987,0,960,0C933.3,0,907,0,880,0C853.3,0,827,0,800,0C773.3,0,747,0,720,0C693.3,0,667,0,640,0C613.3,0,587,0,560,0C533.3,0,507,0,480,0C453.3,0,427,0,400,0C373.3,0,347,0,320,0C293.3,0,267,0,240,0C213.3,0,187,0,160,0C133.3,0,107,0,80,0C53.3,0,27,0,13,0L0,0Z"></path></svg>